<svg id="Layer_1" data-name="Layer 1" xmlns="http://www.w3.org/2000/svg" viewBox="0 0 79.16 77.1"><defs><style>.cls-1{fill:#60c8d3;}.cls-2{fill:#44a8c5;}</style></defs><polygon class="cls-1" points="78.85 37.43 68.26 47.22 39.83 19.94 11.08 47.51 10.16 47.51 0 38.21 39.83 0 78.85 37.43"/><polygon class="cls-2" points="79.16 37.43 68.57 47.22 40.14 19.94 39.77 20.29 39.77 0.35 40.14 0 79.16 37.43"/><polygon class="cls-1" points="78.85 67.02 68.26 76.81 39.83 49.53 11.08 77.1 10.16 77.1 0 67.8 39.83 29.59 78.85 67.02"/><polygon class="cls-2" points="79.16 67.02 68.57 76.81 40.14 49.53 39.77 49.88 39.77 29.94 40.14 29.59 79.16 67.02"/></svg>